<svg viewBox="0 0 100 100" xmlns="http://www.w3.org/2000/svg">
  <defs>
    <linearGradient id="logoGradient" x1="0%" y1="0%" x2="100%" y2="100%">
      <stop offset="0%" style="stop-color:#ce422b;stop-opacity:1" />
      <stop offset="100%" style="stop-color:#f59e0b;stop-opacity:1" />
    </linearGradient>
  </defs>
  
  <!-- Background Circle -->
  <circle cx="50" cy="50" r="45" fill="url(#logoGradient)" opacity="0.1"/>
  
  <!-- House Shape -->
  <path d="M25 60 L50 35 L75 60 L75 80 L60 80 L60 65 L40 65 L40 80 L25 80 Z" 
        fill="none" stroke="url(#logoGradient)" stroke-width="3" stroke-linejoin="round"/>
  
  <!-- MCP Symbol (interconnected nodes) -->
  <circle cx="35" cy="50" r="3" fill="#059669"/>
  <circle cx="50" cy="45" r="3" fill="#0891b2"/>
  <circle cx="65" cy="50" r="3" fill="#ce422b"/>
  
  <!-- Connections -->
  <line x1="35" y1="50" x2="50" y2="45" stroke="#334155" stroke-width="2"/>
  <line x1="50" y1="45" x2="65" y2="50" stroke="#334155" stroke-width="2"/>
  <line x1="65" y1="50" x2="35" y2="50" stroke="#334155" stroke-width="2"/>
  
  <!-- Rust gear symbol -->
  <g transform="translate(70, 20) scale(0.3)">
    <path d="M22.2 24.9l-1.4-1.3-3.8.4c-.2-.8-.4-1.6-.8-2.4l2.7-2.7-1.3-1.4-2.7 2.7c-.8-.4-1.6-.6-2.4-.8l.4-3.8-1.8 0 .4 3.8c-.8.2-1.6.4-2.4.8l-2.7-2.7-1.4 1.4 2.7 2.7c-.4.8-.6 1.6-.8 2.4l-3.8-.4-1.4 1.3.4 3.8c.2.8.4 1.6.8 2.4l-2.7 2.7 1.3 1.4 2.7-2.7c.8.4 1.6.6 2.4.8l-.4 3.8 1.8 0-.4-3.8c.8-.2 1.6-.4 2.4-.8l2.7 2.7 1.4-1.4-2.7-2.7c.4-.8.6-1.6.8-2.4l3.8.4zm-9.7 2.4c-1.9 0-3.5-1.6-3.5-3.5s1.6-3.5 3.5-3.5 3.5 1.6 3.5 3.5-1.6 3.5-3.5 3.5z" 
          fill="#ce422b"/>
  </g>
</svg>